<?xml version="1.0" encoding="utf-8"?>
<!-- Generator: Adobe Illustrator 24.2.0, SVG Export Plug-In . SVG Version: 6.00 Build 0)  -->
<svg version="1.1" id="Capa_1" xmlns="http://www.w3.org/2000/svg" xmlns:xlink="http://www.w3.org/1999/xlink" x="0px" y="0px"
	 viewBox="0 0 819.1 776.9" style="enable-background:new 0 0 819.1 776.9;" xml:space="preserve">
<style type="text/css">
	.st0{fill:#C7E8ED;}
	.st1{fill:#64C0CC;}
	.st2{fill:#ECB9A5;}
	.st3{fill:#E5D563;}
	.st4{fill:#C0E77B;}
	.st5{fill:#D2F6CD;}
	.st6{fill:none;stroke:#000000;}
	.st7{font-family:'KohinoorDevanagari-Regular';}
	.st8{font-size:9px;}
	.st9{font-family:'Helvetica';}
	.st10{font-size:10px;}
	.st11{fill:#E7DD87;}
	.st12{font-family:'KohinoorDevanagari-Bold';}
	.st13{font-size:12px;}
</style>
<rect x="41" y="457.5" class="st0" width="16.5" height="107"/>
<rect x="58.5" y="455" class="st0" width="16.5" height="105.8"/>
<rect x="76.1" y="456.3" class="st0" width="16.5" height="100.8"/>
<rect x="111.1" y="473.7" class="st0" width="16.5" height="89.6"/>
<rect x="93.6" y="472.5" class="st0" width="16.5" height="92.1"/>
<rect x="128.7" y="466.2" class="st0" width="16.5" height="98.3"/>
<rect x="146.2" y="478.7" class="st0" width="16.5" height="89.6"/>
<rect x="163.7" y="493.6" class="st0" width="16.5" height="98.3"/>
<rect x="181.3" y="472.5" class="st0" width="16.5" height="98.3"/>
<rect x="198.8" y="483.7" class="st0" width="16.5" height="82.1"/>
<rect x="216.3" y="479.9" class="st0" width="16.5" height="82.1"/>
<rect x="304" y="473.7" class="st0" width="16.5" height="90.8"/>
<rect x="251.4" y="463.8" class="st0" width="16.5" height="104.5"/>
<rect x="269" y="492.4" class="st0" width="16.5" height="73.4"/>
<rect x="233.9" y="501.1" class="st0" width="16.5" height="88.4"/>
<rect x="321.6" y="491.1" class="st0" width="16.5" height="74.7"/>
<rect x="286.5" y="521" class="st0" width="16.5" height="83.4"/>
<rect x="444.3" y="512.3" class="st0" width="16.5" height="69.7"/>
<rect x="356.6" y="506.1" class="st0" width="16.5" height="69.7"/>
<rect x="339.1" y="487.4" class="st0" width="16.5" height="79.6"/>
<rect x="391.7" y="483.7" class="st0" width="16.5" height="80.9"/>
<rect x="374.2" y="524.7" class="st0" width="16.5" height="84.6"/>
<rect x="461.8" y="499.8" class="st0" width="16.5" height="83.4"/>
<rect x="479.4" y="493.6" class="st0" width="16.5" height="83.4"/>
<rect x="426.8" y="532.2" class="st0" width="16.5" height="75.9"/>
<rect x="409.2" y="493.6" class="st0" width="16.5" height="89.6"/>
<rect x="496.9" y="599.4" class="st0" width="16.5" height="13.7"/>
<rect x="619.7" y="492.4" class="st0" width="16.5" height="84.6"/>
<rect x="584.6" y="496.1" class="st0" width="16.5" height="82.1"/>
<rect x="514.4" y="503.6" class="st0" width="16.5" height="92.1"/>
<rect x="549.5" y="514.8" class="st0" width="16.5" height="75.9"/>
<rect x="654.7" y="497.4" class="st0" width="16.5" height="68.4"/>
<rect x="602.1" y="539.7" class="st0" width="16.5" height="70.9"/>
<rect x="532" y="531" class="st0" width="16.5" height="90.8"/>
<rect x="689.8" y="498.6" class="st0" width="16.5" height="69.7"/>
<rect x="672.3" y="514.8" class="st0" width="16.5" height="63.5"/>
<rect x="707.3" y="503.6" class="st0" width="16.5" height="63.5"/>
<rect x="567" y="524.7" class="st0" width="16.5" height="89.6"/>
<rect x="637.2" y="594.4" class="st0" width="16.5" height="29.9"/>
<rect x="724.9" y="514.8" class="st0" width="16.5" height="59.7"/>
<rect x="742.4" y="519.8" class="st0" width="16.5" height="56"/>
<rect x="759.9" y="521" class="st0" width="16.5" height="61"/>
<rect x="777.5" y="524.7" class="st0" width="16.5" height="59.7"/>
<rect x="41" y="285.8" class="st1" width="16.5" height="89.6"/>
<rect x="58.5" y="295.8" class="st1" width="16.5" height="85.9"/>
<rect x="76.1" y="282.1" class="st1" width="16.5" height="83.4"/>
<rect x="111.1" y="315.7" class="st1" width="16.5" height="84.6"/>
<rect x="93.6" y="313.2" class="st1" width="16.5" height="83.4"/>
<rect x="128.7" y="316.9" class="st1" width="16.5" height="78.4"/>
<rect x="146.2" y="325.6" class="st1" width="16.5" height="70.9"/>
<rect x="163.7" y="367.9" class="st1" width="16.5" height="47.3"/>
<rect x="181.3" y="350.5" class="st1" width="16.5" height="62.2"/>
<rect x="198.8" y="341.8" class="st1" width="16.5" height="78.4"/>
<rect x="216.3" y="360.5" class="st1" width="16.5" height="47.3"/>
<rect x="304" y="379.1" class="st1" width="16.5" height="32.4"/>
<rect x="251.4" y="344.3" class="st1" width="16.5" height="46"/>
<rect x="269" y="349.3" class="st1" width="16.5" height="58.5"/>
<rect x="233.9" y="366.7" class="st1" width="16.5" height="54.8"/>
<rect x="321.6" y="363" class="st1" width="16.5" height="66"/>
<rect x="286.5" y="360.5" class="st1" width="16.5" height="82.1"/>
<rect x="444.3" y="389.1" class="st1" width="16.5" height="13.7"/>
<rect x="356.6" y="367.9" class="st1" width="16.5" height="58.5"/>
<rect x="339.1" y="369.2" class="st1" width="16.5" height="63.5"/>
<rect x="391.7" y="360.5" class="st1" width="16.5" height="53.5"/>
<rect x="374.2" y="386.6" class="st1" width="16.5" height="63.5"/>
<rect x="461.8" y="386.6" class="st1" width="16.5" height="41.1"/>
<rect x="479.4" y="380.4" class="st1" width="16.5" height="38.6"/>
<rect x="426.8" y="390.3" class="st1" width="16.5" height="53.5"/>
<rect x="409.2" y="370.4" class="st1" width="16.5" height="70.9"/>
<rect x="496.9" y="409" class="st1" width="16.5" height="88.4"/>
<rect x="619.7" y="404" class="st1" width="16.5" height="23.6"/>
<rect x="584.6" y="394.1" class="st1" width="16.5" height="16.2"/>
<rect x="514.4" y="401.5" class="st1" width="16.5" height="42.3"/>
<rect x="549.5" y="405.3" class="st1" width="16.5" height="47.3"/>
<rect x="654.7" y="399" class="st1" width="16.5" height="18.7"/>
<rect x="602.1" y="427.7" class="st1" width="16.5" height="23.6"/>
<rect x="532" y="404" class="st1" width="16.5" height="59.7"/>
<rect x="689.8" y="405.3" class="st1" width="16.5" height="14.9"/>
<rect x="672.3" y="395.3" class="st1" width="16.5" height="38.6"/>
<rect x="707.3" y="402.8" class="st1" width="16.5" height="27.4"/>
<rect x="567" y="411.5" class="st1" width="16.5" height="61"/>
<rect x="637.2" y="432.6" class="st1" width="16.5" height="72.2"/>
<rect x="724.9" y="419" class="st1" width="16.5" height="17.4"/>
<rect x="742.4" y="422.7" class="st1" width="16.5" height="24.9"/>
<rect x="759.9" y="423.9" class="st1" width="16.5" height="22.4"/>
<rect x="777.5" y="440.1" class="st1" width="16.5" height="5"/>
<rect x="41" y="110.3" class="st2" width="16.5" height="69.7"/>
<rect x="58.5" y="119" class="st2" width="16.5" height="70.9"/>
<rect x="76.1" y="147.7" class="st2" width="16.5" height="62.2"/>
<rect x="111.1" y="165.1" class="st2" width="16.5" height="43.6"/>
<rect x="93.6" y="161.4" class="st2" width="16.5" height="64.7"/>
<rect x="128.7" y="177.5" class="st2" width="16.5" height="62.2"/>
<rect x="146.2" y="208.6" class="st2" width="16.5" height="63.5"/>
<rect x="163.7" y="212.4" class="st2" width="16.5" height="89.6"/>
<rect x="181.3" y="229.8" class="st2" width="16.5" height="62.2"/>
<rect x="198.8" y="232.3" class="st2" width="16.5" height="52.3"/>
<rect x="216.3" y="255.9" class="st2" width="16.5" height="48.5"/>
<rect x="304" y="265.9" class="st2" width="16.5" height="56"/>
<rect x="251.4" y="262.2" class="st2" width="16.5" height="36.1"/>
<rect x="269" y="264.6" class="st2" width="16.5" height="23.6"/>
<rect x="233.9" y="257.2" class="st2" width="16.5" height="72.2"/>
<rect x="321.6" y="267.1" class="st2" width="16.5" height="44.8"/>
<rect x="286.5" y="264.6" class="st2" width="16.5" height="34.8"/>
<rect x="444.3" y="297" class="st2" width="16.5" height="61"/>
<rect x="356.6" y="283.3" class="st2" width="16.5" height="49.8"/>
<rect x="339.1" y="280.8" class="st2" width="16.5" height="54.8"/>
<rect x="391.7" y="288.3" class="st2" width="16.5" height="43.6"/>
<rect x="374.2" y="283.3" class="st2" width="16.5" height="54.8"/>
<rect x="461.8" y="297" class="st2" width="16.5" height="44.8"/>
<rect x="479.4" y="300.7" class="st2" width="16.5" height="37.3"/>
<rect x="426.8" y="292" class="st2" width="16.5" height="52.3"/>
<rect x="409.2" y="288.3" class="st2" width="16.5" height="51"/>
<rect x="496.9" y="300.7" class="st2" width="16.5" height="47.3"/>
<rect x="619.7" y="323.1" class="st2" width="16.5" height="33.6"/>
<rect x="584.6" y="320.6" class="st2" width="16.5" height="43.6"/>
<rect x="514.4" y="311.9" class="st2" width="16.5" height="49.8"/>
<rect x="549.5" y="314.4" class="st2" width="16.5" height="52.3"/>
<rect x="654.7" y="326.9" class="st2" width="16.5" height="47.3"/>
<rect x="602.1" y="321.9" class="st2" width="16.5" height="66"/>
<rect x="532" y="311.9" class="st2" width="16.5" height="49.8"/>
<rect x="689.8" y="334.3" class="st2" width="16.5" height="41.1"/>
<rect x="672.3" y="331.8" class="st2" width="16.5" height="28.6"/>
<rect x="707.3" y="336.8" class="st2" width="16.5" height="32.4"/>
<rect x="567" y="319.4" class="st2" width="16.5" height="43.6"/>
<rect x="637.2" y="323.1" class="st2" width="16.5" height="64.7"/>
<rect x="724.9" y="370.4" class="st2" width="16.5" height="21.2"/>
<rect x="742.4" y="374.2" class="st2" width="16.5" height="27.4"/>
<rect x="759.9" y="395.3" class="st2" width="16.5" height="7.5"/>
<rect x="777.5" y="405.3" class="st2" width="16.5" height="6.2"/>
<rect x="41" y="564.6" class="st3" width="16.5" height="103.3"/>
<rect x="58.5" y="560.8" class="st3" width="16.5" height="107"/>
<rect x="76.1" y="557.1" class="st3" width="16.5" height="110.8"/>
<rect x="111.1" y="563.3" class="st3" width="16.5" height="104.5"/>
<rect x="93.6" y="564.6" class="st3" width="16.5" height="103.3"/>
<rect x="128.7" y="564.6" class="st3" width="16.5" height="103.3"/>
<rect x="146.2" y="568.3" class="st3" width="16.5" height="99.6"/>
<rect x="163.7" y="591.9" class="st3" width="16.5" height="75.9"/>
<rect x="181.3" y="570.8" class="st3" width="16.5" height="97.1"/>
<rect x="198.8" y="565.8" class="st3" width="16.5" height="102"/>
<rect x="216.3" y="562.1" class="st3" width="16.5" height="105.8"/>
<rect x="304" y="564.6" class="st3" width="16.5" height="103.3"/>
<rect x="251.4" y="568.3" class="st3" width="16.5" height="99.6"/>
<rect x="269" y="565.8" class="st3" width="16.5" height="102"/>
<rect x="233.9" y="589.4" class="st3" width="16.5" height="78.4"/>
<rect x="321.6" y="565.8" class="st3" width="16.5" height="102"/>
<rect x="286.5" y="604.4" class="st3" width="16.5" height="63.5"/>
<rect x="444.3" y="582" class="st3" width="16.5" height="85.9"/>
<rect x="356.6" y="575.8" class="st3" width="16.5" height="92.1"/>
<rect x="339.1" y="567" class="st3" width="16.5" height="100.8"/>
<rect x="391.7" y="564.6" class="st3" width="16.5" height="103.3"/>
<rect x="374.2" y="609.4" class="st3" width="16.5" height="58.5"/>
<rect x="461.8" y="583.2" class="st3" width="16.5" height="84.6"/>
<rect x="479.4" y="577" class="st3" width="16.5" height="90.8"/>
<rect x="426.8" y="608.1" class="st3" width="16.5" height="59.7"/>
<rect x="409.2" y="583.2" class="st3" width="16.5" height="84.6"/>
<rect x="496.9" y="613.1" class="st3" width="16.5" height="54.8"/>
<rect x="619.7" y="577" class="st3" width="16.5" height="90.8"/>
<rect x="584.6" y="578.2" class="st3" width="16.5" height="89.6"/>
<rect x="514.4" y="595.7" class="st3" width="16.5" height="72.2"/>
<rect x="549.5" y="590.7" class="st3" width="16.5" height="77.2"/>
<rect x="654.7" y="565.8" class="st3" width="16.5" height="102"/>
<rect x="602.1" y="610.6" class="st3" width="16.5" height="57.2"/>
<rect x="532" y="621.8" class="st3" width="16.5" height="46"/>
<rect x="689.8" y="568.3" class="st3" width="16.5" height="99.6"/>
<rect x="672.3" y="578.2" class="st3" width="16.5" height="89.6"/>
<rect x="707.3" y="567" class="st3" width="16.5" height="100.8"/>
<rect x="567" y="614.3" class="st3" width="16.5" height="53.5"/>
<rect x="637.2" y="624.3" class="st3" width="16.5" height="43.6"/>
<rect x="724.9" y="574.5" class="st3" width="16.5" height="93.3"/>
<rect x="742.4" y="575.8" class="st3" width="16.5" height="92.1"/>
<rect x="759.9" y="582" class="st3" width="16.5" height="85.9"/>
<rect x="777.5" y="584.5" class="st3" width="16.5" height="83.4"/>
<rect x="41" y="375.4" class="st4" width="16.5" height="82.1"/>
<rect x="58.5" y="381.6" class="st4" width="16.5" height="73.4"/>
<rect x="76.1" y="365.4" class="st4" width="16.5" height="90.8"/>
<rect x="111.1" y="400.3" class="st4" width="16.5" height="73.4"/>
<rect x="93.6" y="396.6" class="st4" width="16.5" height="75.9"/>
<rect x="128.7" y="395.3" class="st4" width="16.5" height="70.9"/>
<rect x="146.2" y="396.6" class="st4" width="16.5" height="82.1"/>
<rect x="163.7" y="415.2" class="st4" width="16.5" height="78.4"/>
<rect x="181.3" y="412.7" class="st4" width="16.5" height="59.7"/>
<rect x="198.8" y="420.2" class="st4" width="16.5" height="63.5"/>
<rect x="216.3" y="407.8" class="st4" width="16.5" height="72.2"/>
<rect x="304" y="411.5" class="st4" width="16.5" height="62.2"/>
<rect x="251.4" y="390.3" class="st4" width="16.5" height="73.4"/>
<rect x="269" y="407.8" class="st4" width="16.5" height="84.6"/>
<rect x="233.9" y="421.4" class="st4" width="16.5" height="79.6"/>
<rect x="321.6" y="428.9" class="st4" width="16.5" height="62.2"/>
<rect x="286.5" y="442.6" class="st4" width="16.5" height="78.4"/>
<rect x="444.3" y="402.8" class="st4" width="16.5" height="109.5"/>
<rect x="356.6" y="426.4" class="st4" width="16.5" height="79.6"/>
<rect x="339.1" y="432.6" class="st4" width="16.5" height="54.8"/>
<rect x="391.7" y="414" class="st4" width="16.5" height="69.7"/>
<rect x="374.2" y="450.1" class="st4" width="16.5" height="74.7"/>
<rect x="461.8" y="427.7" class="st4" width="16.5" height="72.2"/>
<rect x="479.4" y="419" class="st4" width="16.5" height="74.7"/>
<rect x="426.8" y="443.8" class="st4" width="16.5" height="88.4"/>
<rect x="409.2" y="441.4" class="st4" width="16.5" height="52.3"/>
<rect x="496.9" y="497.4" class="st4" width="16.5" height="102"/>
<rect x="619.7" y="427.7" class="st4" width="16.5" height="64.7"/>
<rect x="584.6" y="410.2" class="st4" width="16.5" height="85.9"/>
<rect x="514.4" y="443.8" class="st4" width="16.5" height="59.7"/>
<rect x="549.5" y="452.6" class="st4" width="16.5" height="62.2"/>
<rect x="654.7" y="417.7" class="st4" width="16.5" height="79.6"/>
<rect x="602.1" y="451.3" class="st4" width="16.5" height="88.4"/>
<rect x="532" y="463.8" class="st4" width="16.5" height="67.2"/>
<rect x="689.8" y="420.2" class="st4" width="16.5" height="78.4"/>
<rect x="672.3" y="433.9" class="st4" width="16.5" height="80.9"/>
<rect x="707.3" y="430.2" class="st4" width="16.5" height="73.4"/>
<rect x="567" y="472.5" class="st4" width="16.5" height="52.3"/>
<rect x="637.2" y="504.8" class="st4" width="16.5" height="89.6"/>
<rect x="724.9" y="436.4" class="st4" width="16.5" height="78.4"/>
<rect x="742.4" y="447.6" class="st4" width="16.5" height="72.2"/>
<rect x="759.9" y="446.3" class="st4" width="16.5" height="74.7"/>
<rect x="777.5" y="445.1" class="st4" width="16.5" height="79.6"/>
<rect x="41" y="180" class="st5" width="16.5" height="105.8"/>
<rect x="58.5" y="190" class="st5" width="16.5" height="105.8"/>
<rect x="76.1" y="209.9" class="st5" width="16.5" height="72.2"/>
<rect x="111.1" y="208.6" class="st5" width="16.5" height="107"/>
<rect x="93.6" y="226.1" class="st5" width="16.5" height="87.1"/>
<rect x="128.7" y="239.8" class="st5" width="16.5" height="77.2"/>
<rect x="146.2" y="272.1" class="st5" width="16.5" height="53.5"/>
<rect x="163.7" y="302" class="st5" width="16.5" height="66"/>
<rect x="181.3" y="292" class="st5" width="16.5" height="58.5"/>
<rect x="198.8" y="284.6" class="st5" width="16.5" height="57.2"/>
<rect x="216.3" y="304.5" class="st5" width="16.5" height="56"/>
<rect x="304" y="321.9" class="st5" width="16.5" height="57.2"/>
<rect x="251.4" y="298.2" class="st5" width="16.5" height="46"/>
<rect x="269" y="288.3" class="st5" width="16.5" height="61"/>
<rect x="233.9" y="329.4" class="st5" width="16.5" height="37.3"/>
<rect x="321.6" y="311.9" class="st5" width="16.5" height="51"/>
<rect x="286.5" y="299.5" class="st5" width="16.5" height="61"/>
<rect x="444.3" y="358" class="st5" width="16.5" height="31.1"/>
<rect x="356.6" y="333.1" class="st5" width="16.5" height="34.8"/>
<rect x="339.1" y="335.6" class="st5" width="16.5" height="33.6"/>
<rect x="391.7" y="331.8" class="st5" width="16.5" height="28.6"/>
<rect x="374.2" y="338.1" class="st5" width="16.5" height="48.5"/>
<rect x="461.8" y="341.8" class="st5" width="16.5" height="44.8"/>
<rect x="479.4" y="338.1" class="st5" width="16.5" height="42.3"/>
<rect x="426.8" y="344.3" class="st5" width="16.5" height="46"/>
<rect x="409.2" y="339.3" class="st5" width="16.5" height="31.1"/>
<rect x="496.9" y="348" class="st5" width="16.5" height="61"/>
<rect x="619.7" y="356.7" class="st5" width="16.5" height="47.3"/>
<rect x="584.6" y="364.2" class="st5" width="16.5" height="29.9"/>
<rect x="514.4" y="361.7" class="st5" width="16.5" height="39.8"/>
<rect x="549.5" y="366.7" class="st5" width="16.5" height="38.6"/>
<rect x="654.7" y="374.2" class="st5" width="16.5" height="24.9"/>
<rect x="602.1" y="387.8" class="st5" width="16.5" height="39.8"/>
<rect x="532" y="361.7" class="st5" width="16.5" height="42.3"/>
<rect x="689.8" y="375.4" class="st5" width="16.5" height="29.9"/>
<rect x="672.3" y="360.5" class="st5" width="16.5" height="34.8"/>
<rect x="707.3" y="369.2" class="st5" width="16.5" height="33.6"/>
<rect x="567" y="363" class="st5" width="16.5" height="48.5"/>
<rect x="637.2" y="387.8" class="st5" width="16.5" height="44.8"/>
<rect x="724.9" y="391.6" class="st5" width="16.5" height="27.4"/>
<rect x="742.4" y="401.5" class="st5" width="16.5" height="21.2"/>
<rect x="759.9" y="402.8" class="st5" width="16.5" height="21.2"/>
<rect x="777.5" y="411.5" class="st5" width="16.5" height="28.6"/>
<path class="st6" d="M40.5,668.3h755"/>
<line class="st6" x1="49.3" y1="667.8" x2="49.3" y2="673.8"/>
<line class="st6" x1="66.8" y1="667.8" x2="66.8" y2="673.8"/>
<line class="st6" x1="84.3" y1="667.8" x2="84.3" y2="673.8"/>
<line class="st6" x1="101.9" y1="667.8" x2="101.9" y2="673.8"/>
<line class="st6" x1="119.4" y1="667.8" x2="119.4" y2="673.8"/>
<line class="st6" x1="136.9" y1="667.8" x2="136.9" y2="673.8"/>
<line class="st6" x1="154.5" y1="667.8" x2="154.5" y2="673.8"/>
<line class="st6" x1="172" y1="667.8" x2="172" y2="673.8"/>
<line class="st6" x1="189.5" y1="667.8" x2="189.5" y2="673.8"/>
<line class="st6" x1="207.1" y1="667.8" x2="207.1" y2="673.8"/>
<line class="st6" x1="224.6" y1="667.8" x2="224.6" y2="673.8"/>
<line class="st6" x1="242.2" y1="667.8" x2="242.2" y2="673.8"/>
<line class="st6" x1="259.7" y1="667.8" x2="259.7" y2="673.8"/>
<line class="st6" x1="277.2" y1="667.8" x2="277.2" y2="673.8"/>
<line class="st6" x1="294.8" y1="667.8" x2="294.8" y2="673.8"/>
<line class="st6" x1="312.3" y1="667.8" x2="312.3" y2="673.8"/>
<line class="st6" x1="329.8" y1="667.8" x2="329.8" y2="673.8"/>
<line class="st6" x1="347.4" y1="667.8" x2="347.4" y2="673.8"/>
<line class="st6" x1="364.9" y1="667.8" x2="364.9" y2="673.8"/>
<line class="st6" x1="382.4" y1="667.8" x2="382.4" y2="673.8"/>
<line class="st6" x1="400" y1="667.8" x2="400" y2="673.8"/>
<line class="st6" x1="417.5" y1="667.8" x2="417.5" y2="673.8"/>
<line class="st6" x1="435" y1="667.8" x2="435" y2="673.8"/>
<line class="st6" x1="452.6" y1="667.8" x2="452.6" y2="673.8"/>
<line class="st6" x1="470.1" y1="667.8" x2="470.1" y2="673.8"/>
<line class="st6" x1="487.6" y1="667.8" x2="487.6" y2="673.8"/>
<line class="st6" x1="505.2" y1="667.8" x2="505.2" y2="673.8"/>
<line class="st6" x1="522.7" y1="667.8" x2="522.7" y2="673.8"/>
<line class="st6" x1="540.2" y1="667.8" x2="540.2" y2="673.8"/>
<line class="st6" x1="557.8" y1="667.8" x2="557.8" y2="673.8"/>
<line class="st6" x1="575.3" y1="667.8" x2="575.3" y2="673.8"/>
<line class="st6" x1="592.8" y1="667.8" x2="592.8" y2="673.8"/>
<line class="st6" x1="610.4" y1="667.8" x2="610.4" y2="673.8"/>
<line class="st6" x1="627.9" y1="667.8" x2="627.9" y2="673.8"/>
<line class="st6" x1="645.5" y1="667.8" x2="645.5" y2="673.8"/>
<line class="st6" x1="663" y1="667.8" x2="663" y2="673.8"/>
<line class="st6" x1="680.5" y1="667.8" x2="680.5" y2="673.8"/>
<line class="st6" x1="698.1" y1="667.8" x2="698.1" y2="673.8"/>
<line class="st6" x1="715.6" y1="667.8" x2="715.6" y2="673.8"/>
<line class="st6" x1="733.1" y1="667.8" x2="733.1" y2="673.8"/>
<line class="st6" x1="750.7" y1="667.8" x2="750.7" y2="673.8"/>
<line class="st6" x1="768.2" y1="667.8" x2="768.2" y2="673.8"/>
<line class="st6" x1="785.7" y1="667.8" x2="785.7" y2="673.8"/>
<text transform="matrix(0.6293 0.7771 -0.7771 0.6293 49.0255 680.7506)" class="st7 st8">Vitacura</text>
<text transform="matrix(0.6293 0.7771 -0.7771 0.6293 66.8013 680.7502)" class="st7 st8">Las Condes</text>
<text transform="matrix(0.6293 0.7771 -0.7771 0.6293 84.3374 680.7503)" class="st7 st8">La Reina</text>
<text transform="matrix(0.6293 0.7771 -0.7771 0.6293 101.8722 680.7503)" class="st7 st8">Providencia</text>
<text transform="matrix(0.6293 0.7771 -0.7771 0.6293 119.3509 680.7493)" class="st7 st8">Lo Barnechea</text>
<text transform="matrix(0.6293 0.7771 -0.7771 0.6293 136.9505 681.2949)" class="st7 st8">Ñuñoa</text>
<text transform="matrix(0.6293 0.7771 -0.7771 0.6293 154.4765 680.7502)" class="st7 st8">Macul</text>
<text transform="matrix(0.6293 0.7771 -0.7771 0.6293 172.0121 680.7496)" class="st7 st8">Punta Arenas</text>
<text transform="matrix(0.6293 0.7771 -0.7771 0.6293 189.551 680.75)" class="st7 st8">Santiago</text>
<text transform="matrix(0.6293 0.7771 -0.7771 0.6293 206.2137 680.75)" class="st7 st8">San Miguel</text>
<text transform="matrix(0.6293 0.7771 -0.7771 0.6293 224.6164 680.7496)" class="st7 st8">La Florida</text>
<text transform="matrix(0.6293 0.7771 -0.7771 0.6293 242.1518 680.7503)" class="st7 st8">Peñaflor</text>
<text transform="matrix(0.6293 0.7771 -0.7771 0.6293 259.6852 680.7501)" class="st7 st8">Quilicura</text>
<text transform="matrix(0.6293 0.7771 -0.7771 0.6293 277.2505 680.7505)" class="st7 st8">Huechuraba</text>
<text transform="matrix(0.6293 0.7771 -0.7771 0.6293 294.7562 680.7502)" class="st7 st8">Colina</text>
<text transform="matrix(0.6293 0.7771 -0.7771 0.6293 312.2499 680.7507)" class="st7 st8">Maipú</text>
<text transform="matrix(0.6293 0.7771 -0.7771 0.6293 329.8507 680.7501)" class="st7 st8">Peñalolén</text>
<text transform="matrix(0.6293 0.7771 -0.7771 0.6293 347.3605 680.7502)" class="st7 st8">La Cisterna</text>
<text transform="matrix(0.6293 0.7771 -0.7771 0.6293 365.173 680.7502)" class="st7 st8">San Joaquín</text>
<text transform="matrix(0.6293 0.7771 -0.7771 0.6293 382.4502 680.7502)" class="st7 st8">Lampa</text>
<text transform="matrix(0.6293 0.7771 -0.7771 0.6293 399.9662 680.7502)" class="st7 st8">Recoleta</text>
<text transform="matrix(0.6293 0.7771 -0.7771 0.6293 417.5004 680.7495)" class="st7 st8">Est. Central</text>
<text transform="matrix(0.6293 0.7771 -0.7771 0.6293 435.0358 680.7502)" class="st7 st8">Talagante</text>
<text transform="matrix(0.6293 0.7771 -0.7771 0.6293 452.5706 680.7502)" class="st7 st8">La Granja</text>
<text transform="matrix(0.6293 0.7771 -0.7771 0.6293 470.7079 680.751)" class="st7 st8">Pudahuel</text>
<text transform="matrix(0.6293 0.7771 -0.7771 0.6293 487.361 680.75)" class="st7 st8">San Bernardo</text>
<text transform="matrix(0.6293 0.7771 -0.7771 0.6293 505.1763 680.7502)" class="st7 st8">Independencia</text>
<text transform="matrix(0.6293 0.7771 -0.7771 0.6293 522.7089 680.7507)" class="st7 st8">Padre Hurtado</text>
<text transform="matrix(0.6293 0.7771 -0.7771 0.6293 540.2507 680.7501)" class="st7 st8">Paine</text>
<text transform="matrix(0.6293 0.7771 -0.7771 0.6293 557.7792 680.7501)" class="st7 st8">Cerrillos</text>
<text transform="matrix(0.6293 0.7771 -0.7771 0.6293 575.3151 680.9779)" class="st9 st8">Buin</text>
<text transform="matrix(0.6293 0.7771 -0.7771 0.6293 592.8502 680.7502)" class="st7 st8">El Bosque</text>
<text transform="matrix(0.6293 0.7771 -0.7771 0.6293 610.3503 680.7493)" class="st7 st8">Melipilla</text>
<text transform="matrix(0.6293 0.7771 -0.7771 0.6293 627.9503 680.7505)" class="st7 st8">Puente Alto</text>
<text transform="matrix(0.6293 0.7771 -0.7771 0.6293 645.4553 680.7495)" class="st7 st8">Quinta Normal</text>
<text transform="matrix(0.6293 0.7771 -0.7771 0.6293 662.9893 680.7501)" class="st7 st8">P. A. Cerda</text>
<text transform="matrix(0.6293 0.7771 -0.7771 0.6293 680.522 680.7505)" class="st7 st8">Renca</text>
<text transform="matrix(0.6293 0.7771 -0.7771 0.6293 698.0602 680.7502)" class="st7 st8">Lo Prado</text>
<text transform="matrix(0.6293 0.7771 -0.7771 0.6293 715.595 680.7502)" class="st7 st8">Conchalí</text>
<text transform="matrix(0.6293 0.7771 -0.7771 0.6293 733.1513 680.7503)" class="st7 st8">Cerro Navia</text>
<text transform="matrix(0.6293 0.7771 -0.7771 0.6293 750.6646 680.7501)" class="st7 st8">San Ramón</text>
<text transform="matrix(0.6293 0.7771 -0.7771 0.6293 768.1993 680.7501)" class="st7 st8">Lo Espejo</text>
<text transform="matrix(0.6293 0.7771 -0.7771 0.6293 785.7501 680.7497)" class="st7 st8">La Pintana</text>
<path class="st6" d="M40.5,668.3v-560"/>
<line class="st6" x1="40" y1="668.3" x2="34" y2="668.3"/>
<text transform="matrix(1 0 0 1 26.5723 671.5436)" class="st7 st8">0</text>
<line class="st6" x1="40" y1="606.1" x2="34" y2="606.1"/>
<text transform="matrix(1 0 0 1 21.0108 609.3214)" class="st7 st8">50</text>
<line class="st6" x1="40" y1="543.9" x2="34" y2="543.9"/>
<text transform="matrix(1 0 0 1 15.4492 547.0991)" class="st7 st8">100</text>
<line class="st6" x1="40" y1="481.6" x2="34" y2="481.6"/>
<text transform="matrix(1 0 0 1 15.4492 484.877)" class="st7 st8">150</text>
<line class="st6" x1="40" y1="419.4" x2="34" y2="419.4"/>
<text transform="matrix(1 0 0 1 15.4492 422.6547)" class="st7 st8">200</text>
<line class="st6" x1="40" y1="357.2" x2="34" y2="357.2"/>
<text transform="matrix(1 0 0 1 15.4492 360.4325)" class="st7 st8">250</text>
<line class="st6" x1="40" y1="295" x2="34" y2="295"/>
<text transform="matrix(1 0 0 1 15.4492 298.2103)" class="st7 st8">300</text>
<line class="st6" x1="40" y1="232.7" x2="34" y2="232.7"/>
<text transform="matrix(1 0 0 1 15.4492 235.988)" class="st7 st8">350</text>
<line class="st6" x1="40" y1="170.5" x2="34" y2="170.5"/>
<text transform="matrix(1 0 0 1 15.4492 173.7658)" class="st7 st8">400</text>
<line class="st6" x1="40" y1="108.3" x2="34" y2="108.3"/>
<text transform="matrix(1 0 0 1 15.4492 111.5436)" class="st7 st8">450</text>
<g transform="translate(0, 0)">
	<rect x="407.3" y="54.4" class="st1" width="15" height="15"/>
	<g>
		<text transform="matrix(1 0 0 1 427.2785 66.8616)" class="st7 st10">AMBIENTE DE NEGOCIOS</text>
	</g>
</g>
<g transform="translate(0, 20.734375)">
	<rect x="42.3" y="33.6" class="st11" width="15" height="15"/>
	<g>
		<text transform="matrix(1 0 0 1 62.3341 46.1273)" class="st7 st10">CONECTIVIDAD Y</text>
	</g>
	<g>
		<text transform="matrix(1 0 0 1 62.3341 58.1273)" class="st7 st10">MOVILIDAD</text>
	</g>
</g>
<g transform="translate(0, 57.078125)">
	<rect x="560.5" y="-2.7" class="st5" width="15" height="15"/>
	<g>
		<text transform="matrix(1 0 0 1 580.5148 9.7835)" class="st7 st10">VIVIENDA Y ENTORO</text>
	</g>
</g>
<g transform="translate(0, 77.8125)">
	<rect x="167.5" y="-23.5" class="st0" width="15" height="15"/>
	<g>
		<text transform="matrix(1 0 0 1 187.5413 -10.9509)" class="st7 st10">CONDICIONES</text>
		<text transform="matrix(1 0 0 1 187.5413 1.0491)" class="st7 st10">LABORALES</text>
	</g>
</g>
<g transform="translate(0, 98.546875)">
	<rect x="288.1" y="-44.2" class="st4" width="15" height="15"/>
	<g>
		<text transform="matrix(1 0 0 1 308.1223 -31.6852)" class="st7 st10">SALUD Y MEDIO</text>
	</g>
	<g>
		<text transform="matrix(1 0 0 1 308.1223 -19.6852)" class="st7 st10">AMBIENTE</text>
	</g>
</g>
<g transform="translate(0, 134.890625)">
	<rect x="692.7" y="-80.5" class="st2" width="15" height="15"/>
	<g>
		<text transform="matrix(1 0 0 1 712.6831 -68.029)" class="st7 st10">SOCIO-CULTURALES</text>
	</g>
</g>
<text transform="matrix(1 0 0 1 41.1552 38.932)" class="st12 st13">Dimensiones del ICVU</text>
</svg>
